# xmcd
#
# Track frame offsets:
#	150
#	16381
#	29999
#	43691
#	57193
#	74601
#	90547
#	105693
#	117468
#	133182
#
# Disc length: 2018 seconds
#
# Revision: 0
# Processed by: cddbd v1.5.1PL2 Copyright (c) Steve Scherf et al.
# Submitted via: dBpowerAMP V4.0
#
DISCID=9407e00a
DTITLE=Shane Owens - Let's Get On It
DYEAR=2005
DGENRE=Country
TTITLE0=Redneck
TTITLE1=Onto Something Baby
TTITLE2=Short For Gone
TTITLE3=Ray Ray's
TTITLE4=Forever
TTITLE5=Big Mother Trucker
TTITLE6=Bottom Of The Fifth
TTITLE7=Party On The River
TTITLE8=Ain't Doing That Again
TTITLE9=Fast
EXTD=
EXTT0=
EXTT1=
EXTT2=
EXTT3=
EXTT4=
EXTT5=
EXTT6=
EXTT7=
EXTT8=
EXTT9=
PLAYORDER=
